<mxfile host="app.diagrams.net" modified="2022-04-08T06:29:18.703Z" agent="5.0 (Macintosh; Intel Mac OS X 10_15_7) AppleWebKit/537.36 (KHTML, like Gecko) Chrome/99.0.4844.74 Safari/537.36 Edg/99.0.1150.55" etag="Awva5D3bgJKMRH9u1Iqj" version="16.6.4" type="github">
  <diagram id="Ez9NOa8rmPA_cQ7ZIKCo" name="Page-1">
    <mxGraphModel dx="1400" dy="816" grid="1" gridSize="10" guides="1" tooltips="1" connect="1" arrows="1" fold="1" page="1" pageScale="1" pageWidth="850" pageHeight="1100" math="0" shadow="0">
      <root>
        <mxCell id="0" />
        <mxCell id="1" parent="0" />
        <mxCell id="DqpLaMD-jv-4hAw9MZrK-1" value="wealth-sdk-app&lt;br&gt;&lt;br&gt;App.js" style="ellipse;whiteSpace=wrap;html=1;" parent="1" vertex="1">
          <mxGeometry x="390" y="80" width="120" height="80" as="geometry" />
        </mxCell>
        <mxCell id="DqpLaMD-jv-4hAw9MZrK-2" value="&lt;div style=&quot;background-color: rgb(255 , 255 , 255) ; font-family: &amp;#34;menlo&amp;#34; , &amp;#34;monaco&amp;#34; , &amp;#34;courier new&amp;#34; , monospace ; line-height: 18px&quot;&gt;&lt;span style=&quot;color: #795e26&quot;&gt;createAppContainer&lt;/span&gt;(&lt;span style=&quot;color: #267f99&quot;&gt;RootNavigator&lt;/span&gt;)&lt;/div&gt;" style="ellipse;whiteSpace=wrap;html=1;" parent="1" vertex="1">
          <mxGeometry x="320" y="180" width="270" height="70" as="geometry" />
        </mxCell>
        <mxCell id="DqpLaMD-jv-4hAw9MZrK-3" value="&lt;div style=&quot;background-color: rgb(255 , 255 , 255) ; font-family: &amp;#34;menlo&amp;#34; , &amp;#34;monaco&amp;#34; , &amp;#34;courier new&amp;#34; , monospace ; line-height: 18px&quot;&gt;&lt;div&gt;&lt;span style=&quot;color: #001080&quot;&gt;Home&lt;/span&gt;&lt;span style=&quot;color: #001080&quot;&gt;:&lt;/span&gt; {&lt;/div&gt;&lt;div&gt;      &lt;span style=&quot;color: #795e26&quot;&gt;screen&lt;/span&gt;&lt;span style=&quot;color: #001080&quot;&gt;:&lt;/span&gt; &lt;span style=&quot;color: #795e26&quot;&gt;HomeScreen&lt;/span&gt;,&lt;/div&gt;&lt;div&gt;    },&lt;/div&gt;&lt;/div&gt;" style="rounded=1;whiteSpace=wrap;html=1;arcSize=28;" parent="1" vertex="1">
          <mxGeometry x="170" y="290" width="120" height="60" as="geometry" />
        </mxCell>
        <mxCell id="DqpLaMD-jv-4hAw9MZrK-4" value="&lt;div style=&quot;background-color: rgb(255 , 255 , 255) ; font-family: &amp;#34;menlo&amp;#34; , &amp;#34;monaco&amp;#34; , &amp;#34;courier new&amp;#34; , monospace ; line-height: 18px&quot;&gt;&lt;div style=&quot;font-family: &amp;#34;menlo&amp;#34; , &amp;#34;monaco&amp;#34; , &amp;#34;courier new&amp;#34; , monospace ; line-height: 18px&quot;&gt;&lt;div&gt;&lt;span style=&quot;color: #001080&quot;&gt;Login&lt;/span&gt;&lt;span style=&quot;color: #001080&quot;&gt;:&lt;/span&gt; {&lt;/div&gt;&lt;div&gt;      &lt;span style=&quot;color: #795e26&quot;&gt;screen&lt;/span&gt;&lt;span style=&quot;color: #001080&quot;&gt;:&lt;/span&gt; &lt;span style=&quot;color: #795e26&quot;&gt;LoginScreen&lt;/span&gt;,&lt;/div&gt;&lt;div&gt;    },&lt;/div&gt;&lt;/div&gt;&lt;/div&gt;" style="rounded=1;whiteSpace=wrap;html=1;arcSize=28;fillColor=#7CE879;strokeColor=#32B343;gradientColor=none;shadow=0;glass=0;strokeWidth=15;" parent="1" vertex="1">
          <mxGeometry x="330" y="290" width="120" height="60" as="geometry" />
        </mxCell>
        <mxCell id="DqpLaMD-jv-4hAw9MZrK-5" value="&lt;div style=&quot;background-color: rgb(255 , 255 , 255) ; font-family: &amp;#34;menlo&amp;#34; , &amp;#34;monaco&amp;#34; , &amp;#34;courier new&amp;#34; , monospace ; line-height: 18px&quot;&gt;&lt;div style=&quot;font-family: &amp;#34;menlo&amp;#34; , &amp;#34;monaco&amp;#34; , &amp;#34;courier new&amp;#34; , monospace ; line-height: 18px&quot;&gt;&lt;div&gt;&lt;span style=&quot;color: #001080&quot;&gt;Test&lt;/span&gt;&lt;span style=&quot;color: #001080&quot;&gt;:&lt;/span&gt; {&lt;/div&gt;&lt;div&gt;      &lt;span style=&quot;color: #267f99&quot;&gt;screen&lt;/span&gt;&lt;span style=&quot;color: #001080&quot;&gt;:&lt;/span&gt; &lt;span style=&quot;color: #267f99&quot;&gt;TestScreen&lt;/span&gt;,&lt;/div&gt;&lt;div&gt;    },&lt;/div&gt;&lt;/div&gt;&lt;/div&gt;" style="rounded=1;whiteSpace=wrap;html=1;arcSize=28;" parent="1" vertex="1">
          <mxGeometry x="470" y="280" width="120" height="60" as="geometry" />
        </mxCell>
        <mxCell id="DqpLaMD-jv-4hAw9MZrK-6" value="&lt;div style=&quot;background-color: rgb(255 , 255 , 255) ; font-family: &amp;#34;menlo&amp;#34; , &amp;#34;monaco&amp;#34; , &amp;#34;courier new&amp;#34; , monospace ; line-height: 18px&quot;&gt;&lt;div style=&quot;font-family: &amp;#34;menlo&amp;#34; , &amp;#34;monaco&amp;#34; , &amp;#34;courier new&amp;#34; , monospace ; line-height: 18px&quot;&gt;&lt;div&gt;&lt;span style=&quot;color: #001080&quot;&gt;Web&lt;/span&gt;&lt;span style=&quot;color: #001080&quot;&gt;:&lt;/span&gt; {&lt;/div&gt;&lt;div&gt;      &lt;span style=&quot;color: #795e26&quot;&gt;screen&lt;/span&gt;&lt;span style=&quot;color: #001080&quot;&gt;:&lt;/span&gt; &lt;span style=&quot;color: #795e26&quot;&gt;ProfolioApp&lt;/span&gt;,&lt;/div&gt;&lt;div&gt;    },&lt;/div&gt;&lt;/div&gt;&lt;/div&gt;" style="rounded=1;whiteSpace=wrap;html=1;arcSize=28;" parent="1" vertex="1">
          <mxGeometry x="630" y="280" width="120" height="60" as="geometry" />
        </mxCell>
        <mxCell id="DqpLaMD-jv-4hAw9MZrK-7" value="&lt;div style=&quot;background-color: rgb(255 , 255 , 255) ; font-family: &amp;#34;menlo&amp;#34; , &amp;#34;monaco&amp;#34; , &amp;#34;courier new&amp;#34; , monospace ; line-height: 18px&quot;&gt;&lt;div style=&quot;font-family: &amp;#34;menlo&amp;#34; , &amp;#34;monaco&amp;#34; , &amp;#34;courier new&amp;#34; , monospace ; line-height: 18px&quot;&gt;&lt;span style=&quot;color: #0070c1&quot;&gt;AppRoutes&lt;/span&gt;.&lt;span style=&quot;color: #001080&quot;&gt;WealthWebView&lt;/span&gt;&lt;/div&gt;&lt;div style=&quot;font-family: &amp;#34;menlo&amp;#34; , &amp;#34;monaco&amp;#34; , &amp;#34;courier new&amp;#34; , monospace ; line-height: 18px&quot;&gt;&lt;div style=&quot;font-family: &amp;#34;menlo&amp;#34; , &amp;#34;monaco&amp;#34; , &amp;#34;courier new&amp;#34; , monospace ; line-height: 18px&quot;&gt;&lt;span style=&quot;color: #a31515&quot;&gt;WebviewScreen&lt;/span&gt;&lt;/div&gt;&lt;/div&gt;&lt;/div&gt;" style="rounded=1;whiteSpace=wrap;html=1;arcSize=28;" parent="1" vertex="1">
          <mxGeometry x="30" y="400" width="200" height="40" as="geometry" />
        </mxCell>
        <mxCell id="DqpLaMD-jv-4hAw9MZrK-8" value="&lt;div style=&quot;background-color: rgb(255 , 255 , 255) ; font-family: &amp;#34;menlo&amp;#34; , &amp;#34;monaco&amp;#34; , &amp;#34;courier new&amp;#34; , monospace ; line-height: 18px&quot;&gt;&lt;div style=&quot;font-family: &amp;#34;menlo&amp;#34; , &amp;#34;monaco&amp;#34; , &amp;#34;courier new&amp;#34; , monospace ; line-height: 18px&quot;&gt;&lt;span style=&quot;color: #0070c1&quot;&gt;AppRoutes&lt;/span&gt;.&lt;span style=&quot;color: rgb(0 , 16 , 128) ; font-family: &amp;#34;menlo&amp;#34; , &amp;#34;monaco&amp;#34; , &amp;#34;courier new&amp;#34; , monospace&quot;&gt;WealthLanding&lt;/span&gt;&lt;/div&gt;&lt;div style=&quot;font-family: &amp;#34;menlo&amp;#34; , &amp;#34;monaco&amp;#34; , &amp;#34;courier new&amp;#34; , monospace ; line-height: 18px&quot;&gt;&lt;div style=&quot;font-family: &amp;#34;menlo&amp;#34; , &amp;#34;monaco&amp;#34; , &amp;#34;courier new&amp;#34; , monospace ; line-height: 18px&quot;&gt;&lt;div style=&quot;font-family: &amp;#34;menlo&amp;#34; , &amp;#34;monaco&amp;#34; , &amp;#34;courier new&amp;#34; , monospace ; line-height: 18px&quot;&gt;&lt;span style=&quot;color: #a31515&quot;&gt;LandingScreen&lt;/span&gt;&lt;/div&gt;&lt;/div&gt;&lt;/div&gt;&lt;/div&gt;" style="rounded=1;whiteSpace=wrap;html=1;arcSize=28;" parent="1" vertex="1">
          <mxGeometry x="250" y="400" width="200" height="40" as="geometry" />
        </mxCell>
        <mxCell id="DqpLaMD-jv-4hAw9MZrK-9" value="&lt;div style=&quot;background-color: rgb(255 , 255 , 255) ; font-family: &amp;#34;menlo&amp;#34; , &amp;#34;monaco&amp;#34; , &amp;#34;courier new&amp;#34; , monospace ; line-height: 18px&quot;&gt;&lt;div style=&quot;font-family: &amp;#34;menlo&amp;#34; , &amp;#34;monaco&amp;#34; , &amp;#34;courier new&amp;#34; , monospace ; line-height: 18px&quot;&gt;&lt;span style=&quot;color: #0070c1&quot;&gt;AppRoutes&lt;/span&gt;.&lt;span style=&quot;color: rgb(0 , 16 , 128) ; font-family: &amp;#34;menlo&amp;#34; , &amp;#34;monaco&amp;#34; , &amp;#34;courier new&amp;#34; , monospace&quot;&gt;WealthBOCIMPF&lt;/span&gt;&lt;/div&gt;&lt;div style=&quot;font-family: &amp;#34;menlo&amp;#34; , &amp;#34;monaco&amp;#34; , &amp;#34;courier new&amp;#34; , monospace ; line-height: 18px&quot;&gt;&lt;div style=&quot;font-family: &amp;#34;menlo&amp;#34; , &amp;#34;monaco&amp;#34; , &amp;#34;courier new&amp;#34; , monospace ; line-height: 18px&quot;&gt;&lt;div style=&quot;font-family: &amp;#34;menlo&amp;#34; , &amp;#34;monaco&amp;#34; , &amp;#34;courier new&amp;#34; , monospace ; line-height: 18px&quot;&gt;&lt;span style=&quot;color: #a31515&quot;&gt;BOCIMPFScreen&lt;/span&gt;&lt;/div&gt;&lt;/div&gt;&lt;/div&gt;&lt;/div&gt;" style="rounded=1;whiteSpace=wrap;html=1;arcSize=28;" parent="1" vertex="1">
          <mxGeometry x="480" y="400" width="200" height="40" as="geometry" />
        </mxCell>
        <mxCell id="DqpLaMD-jv-4hAw9MZrK-10" value="&lt;div style=&quot;background-color: rgb(255 , 255 , 255) ; font-family: &amp;#34;menlo&amp;#34; , &amp;#34;monaco&amp;#34; , &amp;#34;courier new&amp;#34; , monospace ; line-height: 18px&quot;&gt;&lt;div style=&quot;font-family: &amp;#34;menlo&amp;#34; , &amp;#34;monaco&amp;#34; , &amp;#34;courier new&amp;#34; , monospace ; line-height: 18px&quot;&gt;&lt;span style=&quot;color: #0070c1&quot;&gt;AppRoutes&lt;/span&gt;.&lt;span style=&quot;color: rgb(0 , 16 , 128) ; font-family: &amp;#34;menlo&amp;#34; , &amp;#34;monaco&amp;#34; , &amp;#34;courier new&amp;#34; , monospace&quot;&gt;WealthHyperView&lt;/span&gt;&lt;/div&gt;&lt;div style=&quot;font-family: &amp;#34;menlo&amp;#34; , &amp;#34;monaco&amp;#34; , &amp;#34;courier new&amp;#34; , monospace ; line-height: 18px&quot;&gt;&lt;div style=&quot;font-family: &amp;#34;menlo&amp;#34; , &amp;#34;monaco&amp;#34; , &amp;#34;courier new&amp;#34; , monospace ; line-height: 18px&quot;&gt;&lt;div style=&quot;font-family: &amp;#34;menlo&amp;#34; , &amp;#34;monaco&amp;#34; , &amp;#34;courier new&amp;#34; , monospace ; line-height: 18px&quot;&gt;&lt;span style=&quot;color: #a31515&quot;&gt;HyperviewScreen/App&lt;/span&gt;&lt;/div&gt;&lt;/div&gt;&lt;/div&gt;&lt;/div&gt;" style="rounded=1;whiteSpace=wrap;html=1;arcSize=28;" parent="1" vertex="1">
          <mxGeometry x="710" y="400" width="200" height="40" as="geometry" />
        </mxCell>
        <mxCell id="Va2xouC2_Z0msRJ49T6t-23" value="" style="group" vertex="1" connectable="0" parent="1">
          <mxGeometry x="10" y="480" width="1240" height="390" as="geometry" />
        </mxCell>
        <mxCell id="Va2xouC2_Z0msRJ49T6t-2" value="Pulse login: get Pulse token by email/password: wsLogin()" style="rounded=1;whiteSpace=wrap;html=1;shadow=0;glass=0;strokeColor=#000000;strokeWidth=1;fillColor=none;gradientColor=none;" vertex="1" parent="Va2xouC2_Z0msRJ49T6t-23">
          <mxGeometry x="230" width="480" height="60" as="geometry" />
        </mxCell>
        <mxCell id="Va2xouC2_Z0msRJ49T6t-3" value="Pulse&amp;nbsp;&lt;span style=&quot;font-family: monospace ; font-size: 0px&quot;&gt;%3CmxGraphModel%3E%3Croot%3E%3CmxCell%20id%3D%220%22%2F%3E%3CmxCell%20id%3D%221%22%20parent%3D%220%22%2F%3E%3CmxCell%20id%3D%222%22%20value%3D%22Pulse%20login%20by%20email%2Fpassword%3A%20wsLogin()%22%20style%3D%22rounded%3D1%3BwhiteSpace%3Dwrap%3Bhtml%3D1%3Bshadow%3D0%3Bglass%3D0%3BstrokeColor%3D%23000000%3BstrokeWidth%3D1%3BfillColor%3Dnone%3BgradientColor%3Dnone%3B%22%20vertex%3D%221%22%20parent%3D%221%22%3E%3CmxGeometry%20x%3D%22240%22%20y%3D%22590%22%20width%3D%22480%22%20height%3D%2260%22%20as%3D%22geometry%22%2F%3E%3C%2FmxCell%3E%3C%2Froot%3E%3C%2FmxGraphModel%3E&lt;/span&gt;&lt;span style=&quot;background-color: rgb(255 , 255 , 255) ; font-family: &amp;#34;menlo&amp;#34; , &amp;#34;monaco&amp;#34; , &amp;#34;courier new&amp;#34; , monospace&quot;&gt;getCustomerById: get user infos by access_token&lt;/span&gt;" style="rounded=1;whiteSpace=wrap;html=1;shadow=0;glass=0;strokeColor=#000000;strokeWidth=1;fillColor=none;gradientColor=none;fontColor=#000000;" vertex="1" parent="Va2xouC2_Z0msRJ49T6t-23">
          <mxGeometry x="230" y="90" width="480" height="60" as="geometry" />
        </mxCell>
        <mxCell id="Va2xouC2_Z0msRJ49T6t-4" value="&lt;div style=&quot;background-color: rgb(255 , 255 , 255) ; font-family: &amp;#34;menlo&amp;#34; , &amp;#34;monaco&amp;#34; , &amp;#34;courier new&amp;#34; , monospace ; line-height: 18px&quot;&gt;&lt;span style=&quot;color: #795e26&quot;&gt;navigate&lt;/span&gt;(&lt;span style=&quot;color: #a31515&quot;&gt;&#39;Home&#39;&lt;/span&gt;, &lt;span style=&quot;color: #001080&quot;&gt;loginData&lt;/span&gt;)&lt;/div&gt;" style="rounded=1;whiteSpace=wrap;html=1;shadow=0;glass=0;strokeColor=#000000;strokeWidth=1;fillColor=none;gradientColor=none;fontColor=#000000;" vertex="1" parent="Va2xouC2_Z0msRJ49T6t-23">
          <mxGeometry x="230" y="190" width="480" height="60" as="geometry" />
        </mxCell>
        <mxCell id="Va2xouC2_Z0msRJ49T6t-12" value="id&lt;br&gt;email&lt;br&gt;phone&lt;br&gt;countryCode&lt;br&gt;languagePreference&lt;br&gt;firstName&lt;br&gt;surName&lt;br&gt;externalIds" style="shape=card;whiteSpace=wrap;html=1;shadow=0;glass=0;fontColor=#000000;strokeColor=#000000;strokeWidth=1;fillColor=none;gradientColor=none;" vertex="1" parent="Va2xouC2_Z0msRJ49T6t-23">
          <mxGeometry x="740" y="50" width="120" height="130" as="geometry" />
        </mxCell>
        <mxCell id="Va2xouC2_Z0msRJ49T6t-14" value="" style="endArrow=classic;html=1;rounded=0;fontColor=#000000;exitX=1;exitY=0.5;exitDx=0;exitDy=0;" edge="1" parent="Va2xouC2_Z0msRJ49T6t-23" source="Va2xouC2_Z0msRJ49T6t-3">
          <mxGeometry width="50" height="50" relative="1" as="geometry">
            <mxPoint x="690" y="180" as="sourcePoint" />
            <mxPoint x="740" y="130" as="targetPoint" />
          </mxGeometry>
        </mxCell>
        <mxCell id="Va2xouC2_Z0msRJ49T6t-16" value="&lt;div style=&quot;background-color: rgb(255 , 255 , 255) ; font-family: &amp;quot;menlo&amp;quot; , &amp;quot;monaco&amp;quot; , &amp;quot;courier new&amp;quot; , monospace ; line-height: 18px&quot;&gt;&lt;div&gt;&lt;span style=&quot;color: #0000ff&quot;&gt;const&lt;/span&gt; &lt;span style=&quot;color: #0070c1&quot;&gt;loginData&lt;/span&gt; = {&lt;/div&gt;&lt;div&gt;                  &lt;span style=&quot;color: #001080&quot;&gt;env&lt;/span&gt;&lt;span style=&quot;color: #001080&quot;&gt;:&lt;/span&gt; &lt;span style=&quot;color: #0070c1&quot;&gt;env&lt;/span&gt;,&lt;/div&gt;&lt;div&gt;                  &lt;span style=&quot;color: #001080&quot;&gt;apiKey&lt;/span&gt;&lt;span style=&quot;color: #001080&quot;&gt;:&lt;/span&gt; &lt;span style=&quot;color: #0070c1&quot;&gt;API_KEY&lt;/span&gt;,&lt;/div&gt;&lt;div&gt;                  &lt;span style=&quot;color: #001080&quot;&gt;apiUrl&lt;/span&gt;&lt;span style=&quot;color: #001080&quot;&gt;:&lt;/span&gt; &lt;span style=&quot;color: #0070c1&quot;&gt;API_URL&lt;/span&gt;,&lt;/div&gt;&lt;div&gt;                  &lt;span style=&quot;color: #001080&quot;&gt;authToken&lt;/span&gt;&lt;span style=&quot;color: #001080&quot;&gt;:&lt;/span&gt; &lt;span style=&quot;color: #0070c1&quot;&gt;token&lt;/span&gt;,&lt;/div&gt;&lt;div&gt;                  &lt;span style=&quot;color: #008000&quot;&gt;// language: lang,&lt;/span&gt;&lt;/div&gt;&lt;div&gt;                  &lt;span style=&quot;color: #001080&quot;&gt;language&lt;/span&gt;&lt;span style=&quot;color: #001080&quot;&gt;:&lt;/span&gt; &lt;span style=&quot;color: #a31515&quot;&gt;&#39;EN&#39;&lt;/span&gt;,&lt;/div&gt;&lt;div&gt;                  &lt;span style=&quot;color: #001080&quot;&gt;timestamp&lt;/span&gt;&lt;span style=&quot;color: #001080&quot;&gt;:&lt;/span&gt; &lt;span style=&quot;color: #0070c1&quot;&gt;timestamp&lt;/span&gt;,&lt;/div&gt;&lt;div&gt;                  &lt;span style=&quot;color: #001080&quot;&gt;userProfile&lt;/span&gt;&lt;span style=&quot;color: #001080&quot;&gt;:&lt;/span&gt; {&lt;/div&gt;&lt;div&gt;                    &lt;span style=&quot;color: #001080&quot;&gt;id&lt;/span&gt;&lt;span style=&quot;color: #001080&quot;&gt;:&lt;/span&gt; &lt;span style=&quot;color: #0070c1&quot;&gt;body&lt;/span&gt;.&lt;span style=&quot;color: #001080&quot;&gt;id&lt;/span&gt;, &lt;span style=&quot;color: #008000&quot;&gt;// kujLKBzKYD13cV5fdTEtk2&lt;/span&gt;&lt;/div&gt;&lt;div&gt;                    &lt;span style=&quot;color: #001080&quot;&gt;email&lt;/span&gt;&lt;span style=&quot;color: #001080&quot;&gt;:&lt;/span&gt; &lt;span style=&quot;color: #795e26&quot;&gt;get&lt;/span&gt;(&lt;span style=&quot;color: #0070c1&quot;&gt;body&lt;/span&gt;, &lt;span style=&quot;color: #a31515&quot;&gt;&#39;contactDetails.email.value&#39;&lt;/span&gt;),&lt;/div&gt;&lt;div&gt;                    &lt;span style=&quot;color: #001080&quot;&gt;phone&lt;/span&gt;&lt;span style=&quot;color: #001080&quot;&gt;:&lt;/span&gt; &lt;span style=&quot;color: #795e26&quot;&gt;get&lt;/span&gt;(&lt;span style=&quot;color: #0070c1&quot;&gt;body&lt;/span&gt;, &lt;span style=&quot;color: #a31515&quot;&gt;&#39;contactDetails.phone.value&#39;&lt;/span&gt;),&lt;/div&gt;&lt;div&gt;                    &lt;span style=&quot;color: #001080&quot;&gt;countryCode&lt;/span&gt;&lt;span style=&quot;color: #001080&quot;&gt;:&lt;/span&gt; &lt;span style=&quot;color: #0070c1&quot;&gt;countryCode&lt;/span&gt;,&lt;/div&gt;&lt;div&gt;                    &lt;span style=&quot;color: #001080&quot;&gt;languagePreference&lt;/span&gt;&lt;span style=&quot;color: #001080&quot;&gt;:&lt;/span&gt; &lt;span style=&quot;color: #795e26&quot;&gt;get&lt;/span&gt;(&lt;span style=&quot;color: #0070c1&quot;&gt;body&lt;/span&gt;, &lt;span style=&quot;color: #a31515&quot;&gt;&#39;preferences.languagePreference.value&#39;&lt;/span&gt;),&lt;/div&gt;&lt;div&gt;                    &lt;span style=&quot;color: #001080&quot;&gt;profilePicture&lt;/span&gt;&lt;span style=&quot;color: #001080&quot;&gt;:&lt;/span&gt; &lt;span style=&quot;color: #a31515&quot;&gt;&#39;&#39;&lt;/span&gt;, &lt;span style=&quot;color: #008000&quot;&gt;// base 64&lt;/span&gt;&lt;/div&gt;&lt;div&gt;                    &lt;span style=&quot;color: #001080&quot;&gt;gender&lt;/span&gt;&lt;span style=&quot;color: #001080&quot;&gt;:&lt;/span&gt; &lt;span style=&quot;color: #a31515&quot;&gt;&#39;MALE&#39;&lt;/span&gt;,&lt;/div&gt;&lt;div&gt;                    &lt;span style=&quot;color: #001080&quot;&gt;firstName&lt;/span&gt;&lt;span style=&quot;color: #001080&quot;&gt;:&lt;/span&gt; &lt;span style=&quot;color: #0070c1&quot;&gt;body&lt;/span&gt;.&lt;span style=&quot;color: #001080&quot;&gt;firstName&lt;/span&gt;,&lt;/div&gt;&lt;div&gt;                    &lt;span style=&quot;color: #001080&quot;&gt;surName&lt;/span&gt;&lt;span style=&quot;color: #001080&quot;&gt;:&lt;/span&gt; &lt;span style=&quot;color: #0070c1&quot;&gt;body&lt;/span&gt;.&lt;span style=&quot;color: #001080&quot;&gt;surName&lt;/span&gt;,&lt;/div&gt;&lt;div&gt;                    &lt;span style=&quot;color: #001080&quot;&gt;externalIds&lt;/span&gt;&lt;span style=&quot;color: #001080&quot;&gt;:&lt;/span&gt; &lt;span style=&quot;color: #0070c1&quot;&gt;body&lt;/span&gt;.&lt;span style=&quot;color: #001080&quot;&gt;externalIds&lt;/span&gt;,&lt;/div&gt;&lt;div&gt;                  },&lt;/div&gt;&lt;/div&gt;" style="shape=card;whiteSpace=wrap;html=1;shadow=0;glass=0;fontColor=#000000;strokeColor=#000000;strokeWidth=1;fillColor=none;gradientColor=none;align=left;" vertex="1" parent="Va2xouC2_Z0msRJ49T6t-23">
          <mxGeometry x="890" y="150" width="350" height="100" as="geometry" />
        </mxCell>
        <mxCell id="Va2xouC2_Z0msRJ49T6t-17" value="" style="endArrow=classic;html=1;rounded=0;fontColor=#000000;entryX=0;entryY=0;entryDx=0;entryDy=65;entryPerimeter=0;" edge="1" parent="Va2xouC2_Z0msRJ49T6t-23" target="Va2xouC2_Z0msRJ49T6t-16">
          <mxGeometry width="50" height="50" relative="1" as="geometry">
            <mxPoint x="710" y="225" as="sourcePoint" />
            <mxPoint x="760" y="175" as="targetPoint" />
          </mxGeometry>
        </mxCell>
        <mxCell id="Va2xouC2_Z0msRJ49T6t-18" value="" style="shape=curlyBracket;whiteSpace=wrap;html=1;rounded=1;shadow=0;glass=0;fontColor=#000000;strokeColor=#000000;strokeWidth=1;fillColor=none;gradientColor=none;size=0.5;" vertex="1" parent="Va2xouC2_Z0msRJ49T6t-23">
          <mxGeometry x="170" y="10" width="10" height="380" as="geometry" />
        </mxCell>
        <mxCell id="Va2xouC2_Z0msRJ49T6t-20" value="" style="edgeStyle=orthogonalEdgeStyle;rounded=0;orthogonalLoop=1;jettySize=auto;html=1;fontColor=#000000;" edge="1" parent="Va2xouC2_Z0msRJ49T6t-23" source="Va2xouC2_Z0msRJ49T6t-19" target="Va2xouC2_Z0msRJ49T6t-3">
          <mxGeometry relative="1" as="geometry" />
        </mxCell>
        <mxCell id="Va2xouC2_Z0msRJ49T6t-19" value="&lt;div style=&quot;font-family: &amp;#34;menlo&amp;#34; , &amp;#34;monaco&amp;#34; , &amp;#34;courier new&amp;#34; , monospace ; background-color: rgb(255 , 255 , 255)&quot;&gt;&lt;span style=&quot;color: rgb(0 , 16 , 128)&quot;&gt;Login&lt;/span&gt;&lt;span style=&quot;color: rgb(0 , 16 , 128)&quot;&gt;:&lt;/span&gt;&amp;nbsp;{&lt;/div&gt;&lt;div style=&quot;font-family: &amp;#34;menlo&amp;#34; , &amp;#34;monaco&amp;#34; , &amp;#34;courier new&amp;#34; , monospace ; background-color: rgb(255 , 255 , 255)&quot;&gt;&lt;span style=&quot;color: rgb(121 , 94 , 38)&quot;&gt;screen&lt;/span&gt;&lt;span style=&quot;color: rgb(0 , 16 , 128)&quot;&gt;:&lt;/span&gt;&amp;nbsp;&lt;span style=&quot;color: rgb(121 , 94 , 38)&quot;&gt;LoginScreen&lt;/span&gt;,&lt;/div&gt;&lt;div style=&quot;font-family: &amp;#34;menlo&amp;#34; , &amp;#34;monaco&amp;#34; , &amp;#34;courier new&amp;#34; , monospace ; background-color: rgb(255 , 255 , 255)&quot;&gt;},&lt;/div&gt;" style="shape=dataStorage;whiteSpace=wrap;html=1;fixedSize=1;shadow=0;glass=0;fontColor=#000000;strokeColor=#000000;strokeWidth=1;fillColor=none;gradientColor=none;" vertex="1" parent="Va2xouC2_Z0msRJ49T6t-23">
          <mxGeometry y="100" width="150" height="80" as="geometry" />
        </mxCell>
        <mxCell id="Va2xouC2_Z0msRJ49T6t-25" value="&lt;div style=&quot;background-color: rgb(255 , 255 , 255) ; font-family: &amp;#34;menlo&amp;#34; , &amp;#34;monaco&amp;#34; , &amp;#34;courier new&amp;#34; , monospace ; line-height: 18px&quot;&gt;&lt;div&gt;&lt;span style=&quot;color: #001080&quot;&gt;Home&lt;/span&gt;&lt;span style=&quot;color: #001080&quot;&gt;:&lt;/span&gt; {&lt;/div&gt;&lt;div&gt;      &lt;span style=&quot;color: #795e26&quot;&gt;screen&lt;/span&gt;&lt;span style=&quot;color: #001080&quot;&gt;:&lt;/span&gt; &lt;span style=&quot;color: #795e26&quot;&gt;HomeScreen&lt;/span&gt;,&lt;/div&gt;&lt;div&gt;    },&lt;/div&gt;&lt;/div&gt;" style="rounded=1;whiteSpace=wrap;html=1;arcSize=28;" vertex="1" parent="1">
          <mxGeometry x="430" y="890" width="120" height="60" as="geometry" />
        </mxCell>
        <mxCell id="Va2xouC2_Z0msRJ49T6t-26" value="&lt;div style=&quot;background-color: rgb(255 , 255 , 255) ; font-family: &amp;#34;menlo&amp;#34; , &amp;#34;monaco&amp;#34; , &amp;#34;courier new&amp;#34; , monospace ; line-height: 18px&quot;&gt;&lt;div style=&quot;font-family: &amp;#34;menlo&amp;#34; , &amp;#34;monaco&amp;#34; , &amp;#34;courier new&amp;#34; , monospace ; line-height: 18px&quot;&gt;&lt;span style=&quot;color: #800000&quot;&gt;&amp;lt;&lt;/span&gt;&lt;span style=&quot;color: rgb(0 , 16 , 128) ; font-family: &amp;#34;menlo&amp;#34; , &amp;#34;monaco&amp;#34; , &amp;#34;courier new&amp;#34; , monospace&quot;&gt;LandingScreen&lt;/span&gt;&amp;nbsp;&lt;span style=&quot;color: rgb(0 , 0 , 255)&quot;&gt;{&lt;/span&gt;...&lt;span style=&quot;color: rgb(0 , 16 , 128)&quot;&gt;props&lt;/span&gt;&lt;span style=&quot;color: rgb(0 , 0 , 255)&quot;&gt;}&lt;/span&gt; &lt;span style=&quot;color: rgb(0 , 0 , 255)&quot;&gt;{&lt;/span&gt;...&lt;span style=&quot;color: rgb(0 , 16 , 128)&quot;&gt;loginData&lt;/span&gt;&lt;span style=&quot;color: rgb(0 , 0 , 255)&quot;&gt;}&lt;/span&gt; &lt;span style=&quot;color: rgb(128 , 0 , 0)&quot;&gt;/&amp;gt;&lt;/span&gt;&lt;br&gt;&lt;/div&gt;&lt;/div&gt;" style="rounded=1;whiteSpace=wrap;html=1;arcSize=28;" vertex="1" parent="1">
          <mxGeometry x="280" y="970" width="450" height="60" as="geometry" />
        </mxCell>
        <mxCell id="Va2xouC2_Z0msRJ49T6t-27" value="" style="endArrow=none;dashed=1;html=1;dashPattern=1 3;strokeWidth=2;rounded=0;fontColor=#000000;" edge="1" parent="1">
          <mxGeometry width="50" height="50" relative="1" as="geometry">
            <mxPoint x="30" y="1050" as="sourcePoint" />
            <mxPoint x="1280" y="1050" as="targetPoint" />
          </mxGeometry>
        </mxCell>
        <mxCell id="Va2xouC2_Z0msRJ49T6t-28" value="wealth-sdk/index.js&lt;br&gt;&lt;br&gt;&lt;div style=&quot;background-color: rgb(255 , 255 , 255) ; font-family: &amp;#34;menlo&amp;#34; , &amp;#34;monaco&amp;#34; , &amp;#34;courier new&amp;#34; , monospace ; line-height: 18px&quot;&gt;&lt;span style=&quot;color: #af00db&quot;&gt;export&lt;/span&gt; { &lt;span style=&quot;color: #0070c1&quot;&gt;WebviewScreen&lt;/span&gt;, &lt;span style=&quot;color: #795e26&quot;&gt;Screen&lt;/span&gt;, &lt;span style=&quot;color: #0070c1&quot;&gt;LandingScreen&lt;/span&gt;, &lt;span style=&quot;color: #0070c1&quot;&gt;BOCIMPFScreen&lt;/span&gt;, &lt;span style=&quot;color: #0070c1&quot;&gt;RicherKidsScreen&lt;/span&gt;, &lt;span style=&quot;color: #0070c1&quot;&gt;HyperviewScreen&lt;/span&gt;, &lt;span style=&quot;color: #795e26&quot;&gt;App&lt;/span&gt; &lt;span style=&quot;color: #af00db&quot;&gt;as&lt;/span&gt; &lt;span style=&quot;color: #795e26&quot;&gt;ProfolioApp&lt;/span&gt; };&lt;/div&gt;&lt;div style=&quot;background-color: rgb(255 , 255 , 255) ; font-family: &amp;#34;menlo&amp;#34; , &amp;#34;monaco&amp;#34; , &amp;#34;courier new&amp;#34; , monospace ; line-height: 18px&quot;&gt;&lt;div style=&quot;font-family: &amp;#34;menlo&amp;#34; , &amp;#34;monaco&amp;#34; , &amp;#34;courier new&amp;#34; , monospace ; line-height: 18px&quot;&gt;&lt;span style=&quot;color: #af00db&quot;&gt;export&lt;/span&gt; { &lt;span style=&quot;color: #0070c1&quot;&gt;AppRoutes&lt;/span&gt;, &lt;span style=&quot;color: #0070c1&quot;&gt;WealthSdkNavConfig&lt;/span&gt; };&lt;/div&gt;&lt;/div&gt;" style="rounded=1;whiteSpace=wrap;html=1;shadow=0;glass=0;fontColor=#000000;strokeColor=#000000;strokeWidth=1;fillColor=none;gradientColor=none;" vertex="1" parent="1">
          <mxGeometry x="70" y="1070" width="1170" height="70" as="geometry" />
        </mxCell>
      </root>
    </mxGraphModel>
  </diagram>
</mxfile>
